<mxfile host="app.diagrams.net" modified="2020-09-18T11:50:01.624Z" agent="5.0 (Windows NT 10.0; Win64; x64) AppleWebKit/537.36 (KHTML, like Gecko) Chrome/85.0.4183.102 Safari/537.36" etag="hp-ZWcdrO_I-BJets1ty" version="13.7.1" type="github">
  <diagram id="R2lEEEUBdFMjLlhIrx00" name="Page-1">
    <mxGraphModel dx="2272" dy="794" grid="1" gridSize="10" guides="1" tooltips="1" connect="1" arrows="1" fold="1" page="1" pageScale="1" pageWidth="850" pageHeight="1100" math="0" shadow="0" extFonts="Permanent Marker^https://fonts.googleapis.com/css?family=Permanent+Marker">
      <root>
        <mxCell id="0" />
        <mxCell id="1" parent="0" />
        <mxCell id="ZXmYxjLJ8FQTE1aZ_M2b-59" style="edgeStyle=orthogonalEdgeStyle;rounded=0;orthogonalLoop=1;jettySize=auto;html=1;exitX=0.5;exitY=0;exitDx=0;exitDy=0;entryX=0.5;entryY=1;entryDx=0;entryDy=0;" edge="1" parent="1" source="ZXmYxjLJ8FQTE1aZ_M2b-41" target="ZXmYxjLJ8FQTE1aZ_M2b-2">
          <mxGeometry relative="1" as="geometry" />
        </mxCell>
        <mxCell id="ZXmYxjLJ8FQTE1aZ_M2b-41" value="ClientInfo" style="shape=table;startSize=30;container=1;collapsible=1;childLayout=tableLayout;fixedRows=1;rowLines=0;fontStyle=1;align=center;resizeLast=1;" vertex="1" parent="1">
          <mxGeometry x="120" y="480" width="180" height="490" as="geometry" />
        </mxCell>
        <mxCell id="ZXmYxjLJ8FQTE1aZ_M2b-42" value="" style="shape=partialRectangle;collapsible=0;dropTarget=0;pointerEvents=0;fillColor=none;top=0;left=0;bottom=1;right=0;points=[[0,0.5],[1,0.5]];portConstraint=eastwest;" vertex="1" parent="ZXmYxjLJ8FQTE1aZ_M2b-41">
          <mxGeometry y="30" width="180" height="30" as="geometry" />
        </mxCell>
        <mxCell id="ZXmYxjLJ8FQTE1aZ_M2b-43" value="PK" style="shape=partialRectangle;connectable=0;fillColor=none;top=0;left=0;bottom=0;right=0;fontStyle=1;overflow=hidden;" vertex="1" parent="ZXmYxjLJ8FQTE1aZ_M2b-42">
          <mxGeometry width="30" height="30" as="geometry" />
        </mxCell>
        <mxCell id="ZXmYxjLJ8FQTE1aZ_M2b-44" value="UniqueID" style="shape=partialRectangle;connectable=0;fillColor=none;top=0;left=0;bottom=0;right=0;align=left;spacingLeft=6;fontStyle=5;overflow=hidden;" vertex="1" parent="ZXmYxjLJ8FQTE1aZ_M2b-42">
          <mxGeometry x="30" width="150" height="30" as="geometry" />
        </mxCell>
        <mxCell id="ZXmYxjLJ8FQTE1aZ_M2b-45" value="" style="shape=partialRectangle;collapsible=0;dropTarget=0;pointerEvents=0;fillColor=none;top=0;left=0;bottom=0;right=0;points=[[0,0.5],[1,0.5]];portConstraint=eastwest;" vertex="1" parent="ZXmYxjLJ8FQTE1aZ_M2b-41">
          <mxGeometry y="60" width="180" height="30" as="geometry" />
        </mxCell>
        <mxCell id="ZXmYxjLJ8FQTE1aZ_M2b-46" value="" style="shape=partialRectangle;connectable=0;fillColor=none;top=0;left=0;bottom=0;right=0;editable=1;overflow=hidden;" vertex="1" parent="ZXmYxjLJ8FQTE1aZ_M2b-45">
          <mxGeometry width="30" height="30" as="geometry" />
        </mxCell>
        <mxCell id="ZXmYxjLJ8FQTE1aZ_M2b-47" value="inn" style="shape=partialRectangle;connectable=0;fillColor=none;top=0;left=0;bottom=0;right=0;align=left;spacingLeft=6;overflow=hidden;" vertex="1" parent="ZXmYxjLJ8FQTE1aZ_M2b-45">
          <mxGeometry x="30" width="150" height="30" as="geometry" />
        </mxCell>
        <mxCell id="ZXmYxjLJ8FQTE1aZ_M2b-48" value="" style="shape=partialRectangle;collapsible=0;dropTarget=0;pointerEvents=0;fillColor=none;top=0;left=0;bottom=0;right=0;points=[[0,0.5],[1,0.5]];portConstraint=eastwest;" vertex="1" parent="ZXmYxjLJ8FQTE1aZ_M2b-41">
          <mxGeometry y="90" width="180" height="30" as="geometry" />
        </mxCell>
        <mxCell id="ZXmYxjLJ8FQTE1aZ_M2b-49" value="" style="shape=partialRectangle;connectable=0;fillColor=none;top=0;left=0;bottom=0;right=0;editable=1;overflow=hidden;" vertex="1" parent="ZXmYxjLJ8FQTE1aZ_M2b-48">
          <mxGeometry width="30" height="30" as="geometry" />
        </mxCell>
        <mxCell id="ZXmYxjLJ8FQTE1aZ_M2b-50" value="kpp" style="shape=partialRectangle;connectable=0;fillColor=none;top=0;left=0;bottom=0;right=0;align=left;spacingLeft=6;overflow=hidden;" vertex="1" parent="ZXmYxjLJ8FQTE1aZ_M2b-48">
          <mxGeometry x="30" width="150" height="30" as="geometry" />
        </mxCell>
        <mxCell id="ZXmYxjLJ8FQTE1aZ_M2b-51" value="" style="shape=partialRectangle;collapsible=0;dropTarget=0;pointerEvents=0;fillColor=none;top=0;left=0;bottom=0;right=0;points=[[0,0.5],[1,0.5]];portConstraint=eastwest;" vertex="1" parent="ZXmYxjLJ8FQTE1aZ_M2b-41">
          <mxGeometry y="120" width="180" height="30" as="geometry" />
        </mxCell>
        <mxCell id="ZXmYxjLJ8FQTE1aZ_M2b-52" value="" style="shape=partialRectangle;connectable=0;fillColor=none;top=0;left=0;bottom=0;right=0;editable=1;overflow=hidden;" vertex="1" parent="ZXmYxjLJ8FQTE1aZ_M2b-51">
          <mxGeometry width="30" height="30" as="geometry" />
        </mxCell>
        <mxCell id="ZXmYxjLJ8FQTE1aZ_M2b-53" value="region" style="shape=partialRectangle;connectable=0;fillColor=#ffe6cc;top=0;left=0;bottom=0;right=0;align=left;spacingLeft=6;overflow=hidden;strokeColor=#d79b00;" vertex="1" parent="ZXmYxjLJ8FQTE1aZ_M2b-51">
          <mxGeometry x="30" width="150" height="30" as="geometry" />
        </mxCell>
        <mxCell id="ZXmYxjLJ8FQTE1aZ_M2b-28" value="Contacts" style="shape=table;startSize=30;container=1;collapsible=1;childLayout=tableLayout;fixedRows=1;rowLines=0;fontStyle=1;align=center;resizeLast=1;" vertex="1" parent="1">
          <mxGeometry x="-140" y="480" width="180" height="260" as="geometry" />
        </mxCell>
        <mxCell id="ZXmYxjLJ8FQTE1aZ_M2b-29" value="" style="shape=partialRectangle;collapsible=0;dropTarget=0;pointerEvents=0;fillColor=none;top=0;left=0;bottom=1;right=0;points=[[0,0.5],[1,0.5]];portConstraint=eastwest;" vertex="1" parent="ZXmYxjLJ8FQTE1aZ_M2b-28">
          <mxGeometry y="30" width="180" height="30" as="geometry" />
        </mxCell>
        <mxCell id="ZXmYxjLJ8FQTE1aZ_M2b-30" value="PK" style="shape=partialRectangle;connectable=0;fillColor=none;top=0;left=0;bottom=0;right=0;fontStyle=1;overflow=hidden;" vertex="1" parent="ZXmYxjLJ8FQTE1aZ_M2b-29">
          <mxGeometry width="30" height="30" as="geometry" />
        </mxCell>
        <mxCell id="ZXmYxjLJ8FQTE1aZ_M2b-31" value="UniqueID" style="shape=partialRectangle;connectable=0;fillColor=none;top=0;left=0;bottom=0;right=0;align=left;spacingLeft=6;fontStyle=5;overflow=hidden;" vertex="1" parent="ZXmYxjLJ8FQTE1aZ_M2b-29">
          <mxGeometry x="30" width="150" height="30" as="geometry" />
        </mxCell>
        <mxCell id="ZXmYxjLJ8FQTE1aZ_M2b-32" value="" style="shape=partialRectangle;collapsible=0;dropTarget=0;pointerEvents=0;fillColor=none;top=0;left=0;bottom=0;right=0;points=[[0,0.5],[1,0.5]];portConstraint=eastwest;" vertex="1" parent="ZXmYxjLJ8FQTE1aZ_M2b-28">
          <mxGeometry y="60" width="180" height="30" as="geometry" />
        </mxCell>
        <mxCell id="ZXmYxjLJ8FQTE1aZ_M2b-33" value="" style="shape=partialRectangle;connectable=0;fillColor=none;top=0;left=0;bottom=0;right=0;editable=1;overflow=hidden;" vertex="1" parent="ZXmYxjLJ8FQTE1aZ_M2b-32">
          <mxGeometry width="30" height="30" as="geometry" />
        </mxCell>
        <mxCell id="ZXmYxjLJ8FQTE1aZ_M2b-34" value="name" style="shape=partialRectangle;connectable=0;fillColor=none;top=0;left=0;bottom=0;right=0;align=left;spacingLeft=6;overflow=hidden;" vertex="1" parent="ZXmYxjLJ8FQTE1aZ_M2b-32">
          <mxGeometry x="30" width="150" height="30" as="geometry" />
        </mxCell>
        <mxCell id="ZXmYxjLJ8FQTE1aZ_M2b-35" value="" style="shape=partialRectangle;collapsible=0;dropTarget=0;pointerEvents=0;fillColor=none;top=0;left=0;bottom=0;right=0;points=[[0,0.5],[1,0.5]];portConstraint=eastwest;" vertex="1" parent="ZXmYxjLJ8FQTE1aZ_M2b-28">
          <mxGeometry y="90" width="180" height="30" as="geometry" />
        </mxCell>
        <mxCell id="ZXmYxjLJ8FQTE1aZ_M2b-36" value="" style="shape=partialRectangle;connectable=0;fillColor=none;top=0;left=0;bottom=0;right=0;editable=1;overflow=hidden;" vertex="1" parent="ZXmYxjLJ8FQTE1aZ_M2b-35">
          <mxGeometry width="30" height="30" as="geometry" />
        </mxCell>
        <mxCell id="ZXmYxjLJ8FQTE1aZ_M2b-37" value="mob_phone" style="shape=partialRectangle;connectable=0;fillColor=none;top=0;left=0;bottom=0;right=0;align=left;spacingLeft=6;overflow=hidden;" vertex="1" parent="ZXmYxjLJ8FQTE1aZ_M2b-35">
          <mxGeometry x="30" width="150" height="30" as="geometry" />
        </mxCell>
        <mxCell id="ZXmYxjLJ8FQTE1aZ_M2b-38" value="" style="shape=partialRectangle;collapsible=0;dropTarget=0;pointerEvents=0;fillColor=none;top=0;left=0;bottom=0;right=0;points=[[0,0.5],[1,0.5]];portConstraint=eastwest;" vertex="1" parent="ZXmYxjLJ8FQTE1aZ_M2b-28">
          <mxGeometry y="120" width="180" height="30" as="geometry" />
        </mxCell>
        <mxCell id="ZXmYxjLJ8FQTE1aZ_M2b-39" value="" style="shape=partialRectangle;connectable=0;fillColor=none;top=0;left=0;bottom=0;right=0;editable=1;overflow=hidden;" vertex="1" parent="ZXmYxjLJ8FQTE1aZ_M2b-38">
          <mxGeometry width="30" height="30" as="geometry" />
        </mxCell>
        <mxCell id="ZXmYxjLJ8FQTE1aZ_M2b-40" value="work phone" style="shape=partialRectangle;connectable=0;fillColor=none;top=0;left=0;bottom=0;right=0;align=left;spacingLeft=6;overflow=hidden;" vertex="1" parent="ZXmYxjLJ8FQTE1aZ_M2b-38">
          <mxGeometry x="30" width="150" height="30" as="geometry" />
        </mxCell>
        <mxCell id="ZXmYxjLJ8FQTE1aZ_M2b-55" style="edgeStyle=orthogonalEdgeStyle;rounded=0;orthogonalLoop=1;jettySize=auto;html=1;" edge="1" parent="1" source="ZXmYxjLJ8FQTE1aZ_M2b-2" target="ZXmYxjLJ8FQTE1aZ_M2b-28">
          <mxGeometry relative="1" as="geometry">
            <Array as="points">
              <mxPoint x="50" y="400" />
              <mxPoint x="-50" y="400" />
            </Array>
          </mxGeometry>
        </mxCell>
        <mxCell id="ZXmYxjLJ8FQTE1aZ_M2b-2" value="Client" style="shape=table;startSize=30;container=1;collapsible=1;childLayout=tableLayout;fixedRows=1;rowLines=0;fontStyle=1;align=center;resizeLast=1;" vertex="1" parent="1">
          <mxGeometry y="30" width="180" height="260" as="geometry" />
        </mxCell>
        <mxCell id="ZXmYxjLJ8FQTE1aZ_M2b-3" value="" style="shape=partialRectangle;collapsible=0;dropTarget=0;pointerEvents=0;fillColor=none;top=0;left=0;bottom=1;right=0;points=[[0,0.5],[1,0.5]];portConstraint=eastwest;" vertex="1" parent="ZXmYxjLJ8FQTE1aZ_M2b-2">
          <mxGeometry y="30" width="180" height="30" as="geometry" />
        </mxCell>
        <mxCell id="ZXmYxjLJ8FQTE1aZ_M2b-4" value="PK" style="shape=partialRectangle;connectable=0;fillColor=none;top=0;left=0;bottom=0;right=0;fontStyle=1;overflow=hidden;" vertex="1" parent="ZXmYxjLJ8FQTE1aZ_M2b-3">
          <mxGeometry width="30" height="30" as="geometry" />
        </mxCell>
        <mxCell id="ZXmYxjLJ8FQTE1aZ_M2b-5" value="UniqueID" style="shape=partialRectangle;connectable=0;fillColor=none;top=0;left=0;bottom=0;right=0;align=left;spacingLeft=6;fontStyle=5;overflow=hidden;" vertex="1" parent="ZXmYxjLJ8FQTE1aZ_M2b-3">
          <mxGeometry x="30" width="150" height="30" as="geometry" />
        </mxCell>
        <mxCell id="ZXmYxjLJ8FQTE1aZ_M2b-6" value="" style="shape=partialRectangle;collapsible=0;dropTarget=0;pointerEvents=0;fillColor=none;top=0;left=0;bottom=0;right=0;points=[[0,0.5],[1,0.5]];portConstraint=eastwest;" vertex="1" parent="ZXmYxjLJ8FQTE1aZ_M2b-2">
          <mxGeometry y="60" width="180" height="30" as="geometry" />
        </mxCell>
        <mxCell id="ZXmYxjLJ8FQTE1aZ_M2b-7" value="" style="shape=partialRectangle;connectable=0;fillColor=none;top=0;left=0;bottom=0;right=0;editable=1;overflow=hidden;" vertex="1" parent="ZXmYxjLJ8FQTE1aZ_M2b-6">
          <mxGeometry width="30" height="30" as="geometry" />
        </mxCell>
        <mxCell id="ZXmYxjLJ8FQTE1aZ_M2b-8" value="clientName" style="shape=partialRectangle;connectable=0;fillColor=none;top=0;left=0;bottom=0;right=0;align=left;spacingLeft=6;overflow=hidden;" vertex="1" parent="ZXmYxjLJ8FQTE1aZ_M2b-6">
          <mxGeometry x="30" width="150" height="30" as="geometry" />
        </mxCell>
        <mxCell id="ZXmYxjLJ8FQTE1aZ_M2b-9" value="" style="shape=partialRectangle;collapsible=0;dropTarget=0;pointerEvents=0;fillColor=none;top=0;left=0;bottom=0;right=0;points=[[0,0.5],[1,0.5]];portConstraint=eastwest;" vertex="1" parent="ZXmYxjLJ8FQTE1aZ_M2b-2">
          <mxGeometry y="90" width="180" height="30" as="geometry" />
        </mxCell>
        <mxCell id="ZXmYxjLJ8FQTE1aZ_M2b-10" value="" style="shape=partialRectangle;connectable=0;fillColor=none;top=0;left=0;bottom=0;right=0;editable=1;overflow=hidden;" vertex="1" parent="ZXmYxjLJ8FQTE1aZ_M2b-9">
          <mxGeometry width="30" height="30" as="geometry" />
        </mxCell>
        <mxCell id="ZXmYxjLJ8FQTE1aZ_M2b-11" value="name" style="shape=partialRectangle;connectable=0;fillColor=none;top=0;left=0;bottom=0;right=0;align=left;spacingLeft=6;overflow=hidden;" vertex="1" parent="ZXmYxjLJ8FQTE1aZ_M2b-9">
          <mxGeometry x="30" width="150" height="30" as="geometry" />
        </mxCell>
        <mxCell id="ZXmYxjLJ8FQTE1aZ_M2b-12" value="" style="shape=partialRectangle;collapsible=0;dropTarget=0;pointerEvents=0;fillColor=none;top=0;left=0;bottom=0;right=0;points=[[0,0.5],[1,0.5]];portConstraint=eastwest;" vertex="1" parent="ZXmYxjLJ8FQTE1aZ_M2b-2">
          <mxGeometry y="120" width="180" height="40" as="geometry" />
        </mxCell>
        <mxCell id="ZXmYxjLJ8FQTE1aZ_M2b-13" value="" style="shape=partialRectangle;connectable=0;fillColor=none;top=0;left=0;bottom=0;right=0;editable=1;overflow=hidden;" vertex="1" parent="ZXmYxjLJ8FQTE1aZ_M2b-12">
          <mxGeometry width="30" height="40" as="geometry" />
        </mxCell>
        <mxCell id="ZXmYxjLJ8FQTE1aZ_M2b-14" value="region" style="shape=partialRectangle;connectable=0;fillColor=#ffe6cc;top=0;left=0;bottom=0;right=0;align=left;spacingLeft=6;overflow=hidden;strokeColor=#d79b00;" vertex="1" parent="ZXmYxjLJ8FQTE1aZ_M2b-12">
          <mxGeometry x="30" width="150" height="40" as="geometry" />
        </mxCell>
        <mxCell id="ZXmYxjLJ8FQTE1aZ_M2b-58" style="edgeStyle=orthogonalEdgeStyle;rounded=0;orthogonalLoop=1;jettySize=auto;html=1;exitX=0.5;exitY=1;exitDx=0;exitDy=0;entryX=1.011;entryY=0.825;entryDx=0;entryDy=0;entryPerimeter=0;" edge="1" parent="1" source="ZXmYxjLJ8FQTE1aZ_M2b-15" target="ZXmYxjLJ8FQTE1aZ_M2b-12">
          <mxGeometry relative="1" as="geometry" />
        </mxCell>
        <mxCell id="ZXmYxjLJ8FQTE1aZ_M2b-15" value="User" style="shape=table;startSize=30;container=1;collapsible=1;childLayout=tableLayout;fixedRows=1;rowLines=0;fontStyle=1;align=center;resizeLast=1;" vertex="1" parent="1">
          <mxGeometry x="440" y="40" width="180" height="160" as="geometry" />
        </mxCell>
        <mxCell id="ZXmYxjLJ8FQTE1aZ_M2b-16" value="" style="shape=partialRectangle;collapsible=0;dropTarget=0;pointerEvents=0;fillColor=none;top=0;left=0;bottom=1;right=0;points=[[0,0.5],[1,0.5]];portConstraint=eastwest;" vertex="1" parent="ZXmYxjLJ8FQTE1aZ_M2b-15">
          <mxGeometry y="30" width="180" height="30" as="geometry" />
        </mxCell>
        <mxCell id="ZXmYxjLJ8FQTE1aZ_M2b-17" value="PK" style="shape=partialRectangle;connectable=0;fillColor=none;top=0;left=0;bottom=0;right=0;fontStyle=1;overflow=hidden;" vertex="1" parent="ZXmYxjLJ8FQTE1aZ_M2b-16">
          <mxGeometry width="30" height="30" as="geometry" />
        </mxCell>
        <mxCell id="ZXmYxjLJ8FQTE1aZ_M2b-18" value="UniqueID" style="shape=partialRectangle;connectable=0;fillColor=none;top=0;left=0;bottom=0;right=0;align=left;spacingLeft=6;fontStyle=5;overflow=hidden;" vertex="1" parent="ZXmYxjLJ8FQTE1aZ_M2b-16">
          <mxGeometry x="30" width="150" height="30" as="geometry" />
        </mxCell>
        <mxCell id="ZXmYxjLJ8FQTE1aZ_M2b-19" value="" style="shape=partialRectangle;collapsible=0;dropTarget=0;pointerEvents=0;fillColor=none;top=0;left=0;bottom=0;right=0;points=[[0,0.5],[1,0.5]];portConstraint=eastwest;" vertex="1" parent="ZXmYxjLJ8FQTE1aZ_M2b-15">
          <mxGeometry y="60" width="180" height="30" as="geometry" />
        </mxCell>
        <mxCell id="ZXmYxjLJ8FQTE1aZ_M2b-20" value="" style="shape=partialRectangle;connectable=0;fillColor=none;top=0;left=0;bottom=0;right=0;editable=1;overflow=hidden;" vertex="1" parent="ZXmYxjLJ8FQTE1aZ_M2b-19">
          <mxGeometry width="30" height="30" as="geometry" />
        </mxCell>
        <mxCell id="ZXmYxjLJ8FQTE1aZ_M2b-21" value="managerType" style="shape=partialRectangle;connectable=0;fillColor=none;top=0;left=0;bottom=0;right=0;align=left;spacingLeft=6;overflow=hidden;" vertex="1" parent="ZXmYxjLJ8FQTE1aZ_M2b-19">
          <mxGeometry x="30" width="150" height="30" as="geometry" />
        </mxCell>
        <mxCell id="ZXmYxjLJ8FQTE1aZ_M2b-22" value="" style="shape=partialRectangle;collapsible=0;dropTarget=0;pointerEvents=0;fillColor=none;top=0;left=0;bottom=0;right=0;points=[[0,0.5],[1,0.5]];portConstraint=eastwest;" vertex="1" parent="ZXmYxjLJ8FQTE1aZ_M2b-15">
          <mxGeometry y="90" width="180" height="30" as="geometry" />
        </mxCell>
        <mxCell id="ZXmYxjLJ8FQTE1aZ_M2b-23" value="" style="shape=partialRectangle;connectable=0;fillColor=none;top=0;left=0;bottom=0;right=0;editable=1;overflow=hidden;" vertex="1" parent="ZXmYxjLJ8FQTE1aZ_M2b-22">
          <mxGeometry width="30" height="30" as="geometry" />
        </mxCell>
        <mxCell id="ZXmYxjLJ8FQTE1aZ_M2b-24" value="name" style="shape=partialRectangle;connectable=0;fillColor=none;top=0;left=0;bottom=0;right=0;align=left;spacingLeft=6;overflow=hidden;" vertex="1" parent="ZXmYxjLJ8FQTE1aZ_M2b-22">
          <mxGeometry x="30" width="150" height="30" as="geometry" />
        </mxCell>
        <mxCell id="ZXmYxjLJ8FQTE1aZ_M2b-25" value="" style="shape=partialRectangle;collapsible=0;dropTarget=0;pointerEvents=0;fillColor=none;top=0;left=0;bottom=0;right=0;points=[[0,0.5],[1,0.5]];portConstraint=eastwest;" vertex="1" parent="ZXmYxjLJ8FQTE1aZ_M2b-15">
          <mxGeometry y="120" width="180" height="30" as="geometry" />
        </mxCell>
        <mxCell id="ZXmYxjLJ8FQTE1aZ_M2b-26" value="" style="shape=partialRectangle;connectable=0;fillColor=none;top=0;left=0;bottom=0;right=0;editable=1;overflow=hidden;" vertex="1" parent="ZXmYxjLJ8FQTE1aZ_M2b-25">
          <mxGeometry width="30" height="30" as="geometry" />
        </mxCell>
        <mxCell id="ZXmYxjLJ8FQTE1aZ_M2b-27" value="idName" style="shape=partialRectangle;connectable=0;fillColor=#f8cecc;top=0;left=0;bottom=0;right=0;align=left;spacingLeft=6;overflow=hidden;strokeColor=#b85450;" vertex="1" parent="ZXmYxjLJ8FQTE1aZ_M2b-25">
          <mxGeometry x="30" width="150" height="30" as="geometry" />
        </mxCell>
        <mxCell id="ZXmYxjLJ8FQTE1aZ_M2b-62" value="" style="shape=partialRectangle;connectable=0;fillColor=none;top=0;left=0;bottom=0;right=0;align=left;spacingLeft=6;overflow=hidden;" vertex="1" parent="1">
          <mxGeometry x="30" y="250" width="150" height="30" as="geometry" />
        </mxCell>
        <mxCell id="ZXmYxjLJ8FQTE1aZ_M2b-64" value="initialSegment" style="shape=partialRectangle;connectable=0;fillColor=none;top=0;left=0;bottom=0;right=0;align=left;spacingLeft=6;overflow=hidden;" vertex="1" parent="1">
          <mxGeometry x="150" y="810" width="150" height="30" as="geometry" />
        </mxCell>
        <mxCell id="ZXmYxjLJ8FQTE1aZ_M2b-66" value="холдинг" style="shape=partialRectangle;connectable=0;fillColor=none;top=0;left=0;bottom=0;right=0;align=left;spacingLeft=6;overflow=hidden;" vertex="1" parent="1">
          <mxGeometry x="150" y="630" width="150" height="30" as="geometry" />
        </mxCell>
        <mxCell id="ZXmYxjLJ8FQTE1aZ_M2b-67" value="makkinzi seg" style="shape=partialRectangle;connectable=0;fillColor=none;top=0;left=0;bottom=0;right=0;align=left;spacingLeft=6;overflow=hidden;" vertex="1" parent="1">
          <mxGeometry x="150" y="660" width="150" height="30" as="geometry" />
        </mxCell>
        <mxCell id="ZXmYxjLJ8FQTE1aZ_M2b-69" value="fieldOfActivity" style="shape=partialRectangle;connectable=0;fillColor=none;top=0;left=0;bottom=0;right=0;align=left;spacingLeft=6;overflow=hidden;" vertex="1" parent="1">
          <mxGeometry x="150" y="720" width="150" height="30" as="geometry" />
        </mxCell>
        <mxCell id="ZXmYxjLJ8FQTE1aZ_M2b-70" value="businessType" style="shape=partialRectangle;connectable=0;fillColor=none;top=0;left=0;bottom=0;right=0;align=left;spacingLeft=6;overflow=hidden;" vertex="1" parent="1">
          <mxGeometry x="150" y="690" width="150" height="30" as="geometry" />
        </mxCell>
        <mxCell id="ZXmYxjLJ8FQTE1aZ_M2b-72" value="marketSegment" style="shape=partialRectangle;connectable=0;fillColor=none;top=0;left=0;bottom=0;right=0;align=left;spacingLeft=6;overflow=hidden;" vertex="1" parent="1">
          <mxGeometry x="150" y="780" width="150" height="30" as="geometry" />
        </mxCell>
        <mxCell id="ZXmYxjLJ8FQTE1aZ_M2b-73" value="activeSubscrib" style="shape=partialRectangle;connectable=0;fillColor=none;top=0;left=0;bottom=0;right=0;align=left;spacingLeft=6;overflow=hidden;" vertex="1" parent="1">
          <mxGeometry x="150" y="750" width="150" height="30" as="geometry" />
        </mxCell>
        <mxCell id="ZXmYxjLJ8FQTE1aZ_M2b-75" style="edgeStyle=orthogonalEdgeStyle;rounded=0;orthogonalLoop=1;jettySize=auto;html=1;" edge="1" parent="1" source="ZXmYxjLJ8FQTE1aZ_M2b-74" target="ZXmYxjLJ8FQTE1aZ_M2b-12">
          <mxGeometry relative="1" as="geometry" />
        </mxCell>
        <mxCell id="ZXmYxjLJ8FQTE1aZ_M2b-74" value="куда лучше строка с филиалом относится" style="text;html=1;strokeColor=none;fillColor=none;align=center;verticalAlign=middle;whiteSpace=wrap;rounded=0;" vertex="1" parent="1">
          <mxGeometry x="-260" y="150" width="170" height="20" as="geometry" />
        </mxCell>
        <mxCell id="ZXmYxjLJ8FQTE1aZ_M2b-77" value="avgRevenue" style="shape=partialRectangle;connectable=0;fillColor=none;top=0;left=0;bottom=0;right=0;align=left;spacingLeft=6;overflow=hidden;" vertex="1" parent="1">
          <mxGeometry x="150" y="840" width="150" height="30" as="geometry" />
        </mxCell>
        <mxCell id="ZXmYxjLJ8FQTE1aZ_M2b-78" value="mail" style="shape=partialRectangle;connectable=0;fillColor=none;top=0;left=0;bottom=0;right=0;align=left;spacingLeft=6;overflow=hidden;" vertex="1" parent="1">
          <mxGeometry x="-110" y="630" width="150" height="30" as="geometry" />
        </mxCell>
        <mxCell id="ZXmYxjLJ8FQTE1aZ_M2b-80" value="accountsCount" style="shape=partialRectangle;connectable=0;fillColor=none;top=0;left=0;bottom=0;right=0;align=left;spacingLeft=6;overflow=hidden;" vertex="1" parent="1">
          <mxGeometry x="150" y="870" width="150" height="30" as="geometry" />
        </mxCell>
        <mxCell id="ZXmYxjLJ8FQTE1aZ_M2b-81" value="clientID" style="shape=partialRectangle;connectable=0;fillColor=none;top=0;left=0;bottom=0;right=0;align=left;spacingLeft=6;overflow=hidden;" vertex="1" parent="1">
          <mxGeometry x="30" y="220" width="150" height="30" as="geometry" />
        </mxCell>
        <mxCell id="ZXmYxjLJ8FQTE1aZ_M2b-83" value="filial" style="shape=partialRectangle;connectable=0;fillColor=none;top=0;left=0;bottom=0;right=0;align=left;spacingLeft=6;overflow=hidden;" vertex="1" parent="1">
          <mxGeometry x="150" y="900" width="150" height="30" as="geometry" />
        </mxCell>
      </root>
    </mxGraphModel>
  </diagram>
</mxfile>
